<mxfile host="app.diagrams.net" modified="2023-04-10T12:26:35.740Z" agent="Mozilla/5.0 (Macintosh; Intel Mac OS X 10_15_7) AppleWebKit/537.36 (KHTML, like Gecko) Chrome/111.0.0.0 Safari/537.36" etag="BCgXWPO34eM0PsZuyrcy" version="21.1.5" type="github">
  <diagram name="페이지-1" id="aWJeriLt6Nnyx26GGZwm">
    <mxGraphModel dx="1080" dy="746" grid="1" gridSize="10" guides="1" tooltips="1" connect="1" arrows="1" fold="1" page="1" pageScale="1" pageWidth="827" pageHeight="1169" math="0" shadow="0">
      <root>
        <mxCell id="0" />
        <mxCell id="1" parent="0" />
        <mxCell id="6sM6LrIC_unwbYS9v8z9-2" value="StoreController" style="swimlane;fontStyle=0;childLayout=stackLayout;horizontal=1;startSize=26;fillColor=none;horizontalStack=0;resizeParent=1;resizeParentMax=0;resizeLast=0;collapsible=1;marginBottom=0;" vertex="1" parent="1">
          <mxGeometry x="344" y="50" width="140" height="52" as="geometry" />
        </mxCell>
        <mxCell id="6sM6LrIC_unwbYS9v8z9-3" value="+ ....." style="text;strokeColor=none;fillColor=none;align=left;verticalAlign=top;spacingLeft=4;spacingRight=4;overflow=hidden;rotatable=0;points=[[0,0.5],[1,0.5]];portConstraint=eastwest;" vertex="1" parent="6sM6LrIC_unwbYS9v8z9-2">
          <mxGeometry y="26" width="140" height="26" as="geometry" />
        </mxCell>
        <mxCell id="6sM6LrIC_unwbYS9v8z9-4" value="상점에서 몬스터볼과 열매를 구매할 수 있는 클래스입니다. 해당 매뉴를 선택하면 직접 처리하지 않고 매뉴에 맞는 클래스를 호출합니다." style="text;spacingLeft=4;spacingRight=4;overflow=hidden;rotatable=0;points=[[0,0.5],[1,0.5]];portConstraint=eastwest;fontSize=12;whiteSpace=wrap;html=1;fillColor=#ffe6cc;strokeColor=#d79b00;" vertex="1" parent="1">
          <mxGeometry x="510" y="42" width="180" height="78" as="geometry" />
        </mxCell>
        <mxCell id="6sM6LrIC_unwbYS9v8z9-15" style="edgeStyle=orthogonalEdgeStyle;rounded=0;orthogonalLoop=1;jettySize=auto;html=1;exitX=0.5;exitY=0;exitDx=0;exitDy=0;startArrow=open;startFill=0;endArrow=none;endFill=0;dashed=1;entryX=0;entryY=0.5;entryDx=0;entryDy=0;entryPerimeter=0;" edge="1" parent="1" source="6sM6LrIC_unwbYS9v8z9-5" target="6sM6LrIC_unwbYS9v8z9-14">
          <mxGeometry relative="1" as="geometry">
            <mxPoint x="290" y="110" as="targetPoint" />
          </mxGeometry>
        </mxCell>
        <mxCell id="6sM6LrIC_unwbYS9v8z9-5" value="BuyMonsterBall" style="swimlane;fontStyle=0;childLayout=stackLayout;horizontal=1;startSize=26;fillColor=none;horizontalStack=0;resizeParent=1;resizeParentMax=0;resizeLast=0;collapsible=1;marginBottom=0;" vertex="1" parent="1">
          <mxGeometry x="220" y="150" width="140" height="52" as="geometry" />
        </mxCell>
        <mxCell id="6sM6LrIC_unwbYS9v8z9-6" value="+ ....." style="text;strokeColor=none;fillColor=none;align=left;verticalAlign=top;spacingLeft=4;spacingRight=4;overflow=hidden;rotatable=0;points=[[0,0.5],[1,0.5]];portConstraint=eastwest;" vertex="1" parent="6sM6LrIC_unwbYS9v8z9-5">
          <mxGeometry y="26" width="140" height="26" as="geometry" />
        </mxCell>
        <mxCell id="6sM6LrIC_unwbYS9v8z9-8" value="BuyBerry" style="swimlane;fontStyle=0;childLayout=stackLayout;horizontal=1;startSize=26;fillColor=none;horizontalStack=0;resizeParent=1;resizeParentMax=0;resizeLast=0;collapsible=1;marginBottom=0;" vertex="1" parent="1">
          <mxGeometry x="470" y="150" width="140" height="52" as="geometry" />
        </mxCell>
        <mxCell id="6sM6LrIC_unwbYS9v8z9-9" value="+ ....." style="text;strokeColor=none;fillColor=none;align=left;verticalAlign=top;spacingLeft=4;spacingRight=4;overflow=hidden;rotatable=0;points=[[0,0.5],[1,0.5]];portConstraint=eastwest;" vertex="1" parent="6sM6LrIC_unwbYS9v8z9-8">
          <mxGeometry y="26" width="140" height="26" as="geometry" />
        </mxCell>
        <mxCell id="6sM6LrIC_unwbYS9v8z9-12" style="edgeStyle=none;rounded=0;orthogonalLoop=1;jettySize=auto;html=1;exitX=0.5;exitY=1;exitDx=0;exitDy=0;entryX=0.5;entryY=0.438;entryDx=0;entryDy=0;entryPerimeter=0;dashed=1;startArrow=none;startFill=0;endArrow=none;endFill=0;" edge="1" parent="1" target="6sM6LrIC_unwbYS9v8z9-14">
          <mxGeometry relative="1" as="geometry">
            <mxPoint x="414" y="102" as="sourcePoint" />
          </mxGeometry>
        </mxCell>
        <mxCell id="6sM6LrIC_unwbYS9v8z9-14" value="" style="line;strokeWidth=1;fillColor=none;align=left;verticalAlign=middle;spacingTop=-1;spacingLeft=3;spacingRight=3;rotatable=0;labelPosition=right;points=[];portConstraint=eastwest;strokeColor=inherit;dashed=1;" vertex="1" parent="1">
          <mxGeometry x="290" y="122" width="249" height="8" as="geometry" />
        </mxCell>
        <mxCell id="6sM6LrIC_unwbYS9v8z9-16" style="edgeStyle=orthogonalEdgeStyle;rounded=0;orthogonalLoop=1;jettySize=auto;html=1;exitX=0.5;exitY=0;exitDx=0;exitDy=0;startArrow=open;startFill=0;endArrow=none;endFill=0;dashed=1;entryX=0;entryY=0.5;entryDx=0;entryDy=0;entryPerimeter=0;" edge="1" parent="1">
          <mxGeometry relative="1" as="geometry">
            <mxPoint x="539" y="126" as="targetPoint" />
            <mxPoint x="539" y="150" as="sourcePoint" />
          </mxGeometry>
        </mxCell>
        <mxCell id="6sM6LrIC_unwbYS9v8z9-17" value="몬스터볼을 구매하는 역할의 클래스." style="text;spacingLeft=4;spacingRight=4;overflow=hidden;rotatable=0;points=[[0,0.5],[1,0.5]];portConstraint=eastwest;fontSize=12;whiteSpace=wrap;html=1;fillColor=#ffe6cc;strokeColor=#d79b00;" vertex="1" parent="1">
          <mxGeometry x="10" y="146" width="190" height="60" as="geometry" />
        </mxCell>
        <mxCell id="6sM6LrIC_unwbYS9v8z9-21" style="edgeStyle=orthogonalEdgeStyle;rounded=0;orthogonalLoop=1;jettySize=auto;html=1;exitX=0.5;exitY=0;exitDx=0;exitDy=0;entryX=0.497;entryY=1.04;entryDx=0;entryDy=0;entryPerimeter=0;startArrow=open;startFill=0;endArrow=none;endFill=0;dashed=1;" edge="1" parent="1" source="6sM6LrIC_unwbYS9v8z9-18" target="6sM6LrIC_unwbYS9v8z9-6">
          <mxGeometry relative="1" as="geometry" />
        </mxCell>
        <mxCell id="6sM6LrIC_unwbYS9v8z9-18" value="CheckClass" style="swimlane;fontStyle=0;childLayout=stackLayout;horizontal=1;startSize=26;fillColor=none;horizontalStack=0;resizeParent=1;resizeParentMax=0;resizeLast=0;collapsible=1;marginBottom=0;" vertex="1" parent="1">
          <mxGeometry x="220" y="250" width="140" height="52" as="geometry" />
        </mxCell>
        <mxCell id="6sM6LrIC_unwbYS9v8z9-19" value="+ ....." style="text;strokeColor=none;fillColor=none;align=left;verticalAlign=top;spacingLeft=4;spacingRight=4;overflow=hidden;rotatable=0;points=[[0,0.5],[1,0.5]];portConstraint=eastwest;" vertex="1" parent="6sM6LrIC_unwbYS9v8z9-18">
          <mxGeometry y="26" width="140" height="26" as="geometry" />
        </mxCell>
        <mxCell id="6sM6LrIC_unwbYS9v8z9-22" value="Player.Inventory 에 접근하여&lt;br&gt;money 와 가격을 비교하고 구매 성공 여부를 진행합니다." style="text;spacingLeft=4;spacingRight=4;overflow=hidden;rotatable=0;points=[[0,0.5],[1,0.5]];portConstraint=eastwest;fontSize=12;whiteSpace=wrap;html=1;fillColor=#ffe6cc;strokeColor=#d79b00;" vertex="1" parent="1">
          <mxGeometry x="10" y="250" width="190" height="54" as="geometry" />
        </mxCell>
        <mxCell id="6sM6LrIC_unwbYS9v8z9-25" style="edgeStyle=orthogonalEdgeStyle;rounded=0;orthogonalLoop=1;jettySize=auto;html=1;exitX=0.5;exitY=0;exitDx=0;exitDy=0;entryX=0.498;entryY=1.031;entryDx=0;entryDy=0;entryPerimeter=0;startArrow=open;startFill=0;endArrow=none;endFill=0;dashed=1;" edge="1" parent="1" source="6sM6LrIC_unwbYS9v8z9-23" target="6sM6LrIC_unwbYS9v8z9-9">
          <mxGeometry relative="1" as="geometry" />
        </mxCell>
        <mxCell id="6sM6LrIC_unwbYS9v8z9-23" value="CheckClass" style="swimlane;fontStyle=0;childLayout=stackLayout;horizontal=1;startSize=26;fillColor=none;horizontalStack=0;resizeParent=1;resizeParentMax=0;resizeLast=0;collapsible=1;marginBottom=0;" vertex="1" parent="1">
          <mxGeometry x="470" y="250" width="140" height="52" as="geometry" />
        </mxCell>
        <mxCell id="6sM6LrIC_unwbYS9v8z9-24" value="+ ....." style="text;strokeColor=none;fillColor=none;align=left;verticalAlign=top;spacingLeft=4;spacingRight=4;overflow=hidden;rotatable=0;points=[[0,0.5],[1,0.5]];portConstraint=eastwest;" vertex="1" parent="6sM6LrIC_unwbYS9v8z9-23">
          <mxGeometry y="26" width="140" height="26" as="geometry" />
        </mxCell>
      </root>
    </mxGraphModel>
  </diagram>
</mxfile>
